Normalized EMG Linear Envelopes
nRows=246
nColumns=4

endheader
time	 med_gas_r	  soleus_r	 tib_ant_r	
3.22681	  0.002383	  0.004432	  0.001494	
3.26008	  0.002406	  0.005270	  0.001485	
3.29335	  0.002422	  0.005961	  0.001478	
3.32661	  0.002427	  0.006385	  0.001472	
3.35988	  0.002421	  0.006500	  0.001470	
3.39315	  0.002410	  0.006349	  0.001477	
3.42641	  0.002406	  0.006037	  0.001496	
3.45968	  0.002426	  0.005676	  0.001524	
3.49294	  0.002478	  0.005340	  0.001559	
3.52621	  0.002563	  0.005056	  0.001593	
3.55948	  0.002671	  0.004824	  0.001619	
3.59274	  0.002785	  0.004638	  0.001633	
3.62601	  0.002891	  0.004492	  0.001635	
3.65927	  0.002979	  0.004384	  0.001626	
3.69254	  0.003046	  0.004315	  0.001611	
3.72581	  0.003093	  0.004281	  0.001590	
3.75907	  0.003119	  0.004281	  0.001567	
3.79234	  0.003120	  0.004314	  0.001542	
3.8256	  0.003089	  0.004374	  0.001518	
3.85887	  0.003022	  0.004453	  0.001493	
3.89214	  0.002926	  0.004535	  0.001466	
3.9254	  0.002816	  0.004603	  0.001436	
3.95867	  0.002713	  0.004640	  0.001403	
3.99194	  0.002629	  0.004635	  0.001372	
4.0252	  0.002568	  0.004586	  0.001346	
4.05847	  0.002530	  0.004499	  0.001327	
4.09173	  0.002515	  0.004386	  0.001314	
4.125	  0.002524	  0.004267	  0.001306	
4.15827	  0.002560	  0.004162	  0.001303	
4.19153	  0.002618	  0.004092	  0.001303	
4.2248	  0.002688	  0.004070	  0.001310	
4.25806	  0.002758	  0.004101	  0.001326	
4.29133	  0.002817	  0.004182	  0.001353	
4.3246	  0.002866	  0.004305	  0.001393	
4.35786	  0.002909	  0.004460	  0.001444	
4.39113	  0.002950	  0.004632	  0.001501	
4.4244	  0.002990	  0.004797	  0.001557	
4.45766	  0.003022	  0.004928	  0.001606	
4.49093	  0.003036	  0.005004	  0.001645	
4.52419	  0.003027	  0.005026	  0.001673	
4.55746	  0.002994	  0.005007	  0.001687	
4.59073	  0.002945	  0.004965	  0.001688	
4.62399	  0.002894	  0.004911	  0.001678	
4.65726	  0.002856	  0.004847	  0.001661	
4.69052	  0.002839	  0.004775	  0.001641	
4.72379	  0.002837	  0.004703	  0.001621	
4.75706	  0.002838	  0.004641	  0.001603	
4.79032	  0.002832	  0.004601	  0.001589	
4.82359	  0.002818	  0.004591	  0.001581	
4.85685	  0.002802	  0.004628	  0.001587	
4.89012	  0.002793	  0.004729	  0.001615	
4.92339	  0.002795	  0.004913	  0.001674	
4.95665	  0.002807	  0.005197	  0.001773	
4.98992	  0.002827	  0.005595	  0.001920	
5.02319	  0.002856	  0.006104	  0.002117	
5.05645	  0.002897	  0.006681	  0.002351	
5.08972	  0.002950	  0.007228	  0.002588	
5.12298	  0.003007	  0.007607	  0.002765	
5.15625	  0.003055	  0.007690	  0.002786	
5.18952	  0.003070	  0.007425	  0.002515	
5.22278	  0.003031	  0.006844	  0.001780	
5.25605	  0.002927	  0.006037	  0.000394	
5.28931	  0.002762	  0.005089	 -0.001824	
5.32258	  0.002549	  0.004048	 -0.005006	
5.35585	  0.002304	  0.002935	 -0.009178	
5.38911	  0.002042	  0.001774	 -0.014145	
5.42238	  0.001784	  0.000638	 -0.019330	
5.45565	  0.001572	 -0.000307	 -0.023610	
5.48891	  0.001476	 -0.000767	 -0.025199	
5.52218	  0.001599	 -0.000309	 -0.021616	
5.55544	  0.002069	  0.001638	 -0.009652	
5.58871	  0.003035	  0.005772	  0.014598	
5.62198	  0.004674	  0.012887	  0.055400	
5.65524	  0.007163	  0.023743	  0.116334	
5.68851	  0.010605	  0.038751	  0.198529	
5.72177	  0.014927	  0.057541	  0.298906	
5.75504	  0.019804	  0.078698	  0.409633	
5.78831	  0.024712	  0.099964	  0.519451	
5.82157	  0.029100	  0.118914	  0.616437	
5.85484	  0.032574	  0.133741	  0.690962	
5.8881	  0.034983	  0.143686	  0.737884	
5.92137	  0.036389	  0.149004	  0.757568	
5.95464	  0.036982	  0.150662	  0.755725	
5.9879	  0.037009	  0.149995	  0.741987	
6.02117	  0.036728	  0.148363	  0.727309	
6.05444	  0.036339	  0.146825	  0.720748	
6.0877	  0.035942	  0.145937	  0.726740	
6.12097	  0.035534	  0.145802	  0.744016	
6.15423	  0.035060	  0.146316	  0.766755	
6.1875	  0.034487	  0.147442	  0.787575	
6.22077	  0.033837	  0.149350	  0.800926	
6.25403	  0.033185	  0.152305	  0.805139	
6.2873	  0.032617	  0.156336	  0.802099	
6.32056	  0.032177	  0.160912	  0.795170	
6.35383	  0.031855	  0.164981	  0.787078	
6.3871	  0.031619	  0.167477	  0.779108	
6.42036	  0.031475	  0.167942	  0.771555	
6.45363	  0.031481	  0.166764	  0.764452	
6.4869	  0.031706	  0.164870	  0.757734	
6.52016	  0.032162	  0.163192	  0.750831	
6.55343	  0.032776	  0.162257	  0.742331	
6.58669	  0.033412	  0.162062	  0.730392	
6.61996	  0.033932	  0.162189	  0.713955	
6.65323	  0.034250	  0.162102	  0.693890	
6.68649	  0.034347	  0.161581	  0.673041	
6.71976	  0.034268	  0.161046	  0.655040	
6.75302	  0.034087	  0.161433	  0.642728	
6.78629	  0.033864	  0.163452	  0.637133	
6.81956	  0.033598	  0.166681	  0.637224	
6.85282	  0.033209	  0.169320	  0.640253	
6.88609	  0.032581	  0.169078	  0.642625	
6.91935	  0.031662	  0.164683	  0.641193	
6.95262	  0.030537	  0.156807	  0.634508	
6.98589	  0.029415	  0.147665	  0.623369	
7.01915	  0.028525	  0.139660	  0.610322	
7.05242	  0.028004	  0.134214	  0.598406	
7.08569	  0.027860	  0.131563	  0.589887	
7.11895	  0.028016	  0.131375	  0.585747	
7.15222	  0.028374	  0.133424	  0.586048	
7.18548	  0.028846	  0.137686	  0.590576	
7.21875	  0.029343	  0.143919	  0.598994	
7.25202	  0.029773	  0.151288	  0.610470	
7.28528	  0.030073	  0.158510	  0.623523	
7.31855	  0.030257	  0.164437	  0.636648	
7.35181	  0.030424	  0.168591	  0.649297	
7.38508	  0.030721	  0.171241	  0.662160	
7.41835	  0.031264	  0.172990	  0.676292	
7.45161	  0.032059	  0.174239	  0.691811	
7.48488	  0.032971	  0.174906	  0.707382	
7.51815	  0.033776	  0.174599	  0.720951	
7.55141	  0.034285	  0.173050	  0.731028	
7.58468	  0.034466	  0.170476	  0.737429	
7.61794	  0.034468	  0.167625	  0.740862	
7.65121	  0.034523	  0.165488	  0.741705	
7.68448	  0.034773	  0.164846	  0.738977	
7.71774	  0.035170	  0.165891	  0.730446	
7.75101	  0.035523	  0.168065	  0.713949	
7.78427	  0.035638	  0.170230	  0.689007	
7.81754	  0.035445	  0.171100	  0.657599	
7.85081	  0.035003	  0.169806	  0.623610	
7.88407	  0.034428	  0.166292	  0.591447	
7.91734	  0.033831	  0.161367	  0.564758	
7.9506	  0.033300	  0.156317	  0.545885	
7.98387	  0.032893	  0.152266	  0.535942	
8.01714	  0.032610	  0.149653	  0.535006	
8.0504	  0.032394	  0.148138	  0.542076	
8.08367	  0.032170	  0.146986	  0.555015	
8.11694	  0.031911	  0.145630	  0.570885	
8.1502	  0.031668	  0.144002	  0.586781	
8.18347	  0.031526	  0.142515	  0.600682	
8.21673	  0.031552	  0.141767	  0.611717	
8.25	  0.031774	  0.142210	  0.619752	
8.28327	  0.032189	  0.143896	  0.624858	
8.31653	  0.032765	  0.146390	  0.627251	
8.3498	  0.033446	  0.148883	  0.627624	
8.38306	  0.034157	  0.150479	  0.627232	
8.41633	  0.034808	  0.150541	  0.627426	
8.4496	  0.035323	  0.148903	  0.629035	
8.48286	  0.035660	  0.145898	  0.632231	
8.51613	  0.035840	  0.142233	  0.636921	
8.5494	  0.035947	  0.138802	  0.643093	
8.58266	  0.036058	  0.136445	  0.650599	
8.61593	  0.036162	  0.135689	  0.658568	
8.64919	  0.036126	  0.136633	  0.665261	
8.68246	  0.035790	  0.139065	  0.668822	
8.71573	  0.035105	  0.142690	  0.668416	
8.74899	  0.034206	  0.147220	  0.664620	
8.78226	  0.033348	  0.152253	  0.658694	
8.81552	  0.032753	  0.157209	  0.651539	
8.84879	  0.032515	  0.161526	  0.643450	
8.88206	  0.032611	  0.165009	  0.634774	
8.91532	  0.032992	  0.167926	  0.626633	
8.94859	  0.033659	  0.170688	  0.620912	
8.98185	  0.034651	  0.173401	  0.619452	
9.01512	  0.035967	  0.175714	  0.623022	
9.04839	  0.037495	  0.177068	  0.630633	
9.08165	  0.039004	  0.177053	  0.639540	
9.11492	  0.040215	  0.175562	  0.646035	
9.14819	  0.040904	  0.172735	  0.646809	
9.18145	  0.040970	  0.168924	  0.640344	
9.21472	  0.040447	  0.164762	  0.627629	
9.24798	  0.039455	  0.161111	  0.611810	
9.28125	  0.038144	  0.158745	  0.596906	
9.31452	  0.036682	  0.157971	  0.586253	
9.34778	  0.035274	  0.158580	  0.581471	
9.38105	  0.034161	  0.160220	  0.582418	
9.41431	  0.033573	  0.162791	  0.587962	
9.44758	  0.033630	  0.166484	  0.596993	
9.48085	  0.034298	  0.171466	  0.609082	
9.51411	  0.035406	  0.177607	  0.624587	
9.54738	  0.036723	  0.184501	  0.644211	
9.58065	  0.038011	  0.191582	  0.667965	
9.61391	  0.039031	  0.198061	  0.693784	
9.64718	  0.039544	  0.202746	  0.716777	
9.68044	  0.039356	  0.204158	  0.730415	
9.71371	  0.038414	  0.201150	  0.729701	
9.74698	  0.036851	  0.193650	  0.714284	
9.78024	  0.034942	  0.182900	  0.688868	
9.81351	  0.033001	  0.170925	  0.660349	
9.84677	  0.031307	  0.159663	  0.634036	
9.88004	  0.030106	  0.150425	  0.611962	
9.91331	  0.029632	  0.143928	  0.594035	
9.94657	  0.030074	  0.140604	  0.580123	
9.97984	  0.031483	  0.140731	  0.570954	
10.0131	  0.033708	  0.144279	  0.567576	
10.0464	  0.036428	  0.150731	  0.570559	
10.0796	  0.039246	  0.159152	  0.579742	
10.1129	  0.041799	  0.168504	  0.594255	
10.1462	  0.043824	  0.177938	  0.612386	
10.1794	  0.045175	  0.186791	  0.631591	
10.2127	  0.045806	  0.194334	  0.648981	
10.246	  0.045719	  0.199558	  0.661792	
10.2792	  0.044897	  0.201246	  0.667030	
10.3125	  0.043282	  0.198286	  0.660557	
10.3458	  0.040782	  0.189936	  0.637031	
10.379	  0.037323	  0.175949	  0.591767	
10.4123	  0.032924	  0.156679	  0.523633	
10.4456	  0.027768	  0.133268	  0.436896	
10.4788	  0.022229	  0.107716	  0.340548	
10.5121	  0.016817	  0.082529	  0.245471	
10.5454	  0.012028	  0.060003	  0.161111	
10.5786	  0.008193	  0.041571	  0.093252	
10.6119	  0.005406	  0.027606	  0.043574	
10.6452	  0.003565	  0.017688	  0.010620	
10.6784	  0.002469	  0.011053	 -0.008726	
10.7117	  0.001904	  0.006915	 -0.018004	
10.745	  0.001689	  0.004604	 -0.020472	
10.7782	  0.001686	  0.003564	 -0.018826	
10.8115	  0.001799	  0.003342	 -0.015123	
10.8448	  0.001969	  0.003575	 -0.010791	
10.878	  0.002161	  0.003991	 -0.006705	
10.9113	  0.002356	  0.004412	 -0.003308	
10.9446	  0.002539	  0.004746	 -0.000746	
10.9778	  0.002691	  0.004972	  0.001010	
11.0111	  0.002796	  0.005103	  0.002078	
11.0444	  0.002850	  0.005168	  0.002620	
11.0776	  0.002860	  0.005184	  0.002797	
11.1109	  0.002840	  0.005165	  0.002753	
11.1442	  0.002806	  0.005114	  0.002599	
11.1774	  0.002768	  0.005034	  0.002406	
11.2107	  0.002735	  0.004924	  0.002215	
11.244	  0.002711	  0.004776	  0.002040	
11.2772	  0.002696	  0.004586	  0.001886	
11.3105	  0.002690	  0.004355	  0.001748	
11.3437	  0.002689	  0.004095	  0.001626	
11.377	  0.002690	  0.003826	  0.001519	
